<mxfile host="app.diagrams.net" modified="2023-04-29T08:34:57.039Z" agent="Mozilla/5.0 (Windows NT 10.0; Win64; x64) AppleWebKit/537.36 (KHTML, like Gecko) Chrome/112.0.0.0 Safari/537.36" etag="bbR0buzFKCHzGe5AzmhQ" version="21.2.3" type="device">
  <diagram name="Trang-1" id="svJ5zwfWCtx62RT05hW7">
    <mxGraphModel dx="1290" dy="483" grid="1" gridSize="10" guides="1" tooltips="1" connect="1" arrows="1" fold="1" page="1" pageScale="1" pageWidth="827" pageHeight="1169" math="0" shadow="0">
      <root>
        <mxCell id="0" />
        <mxCell id="1" parent="0" />
        <mxCell id="o4THPmxDcBXAigtbzNWf-1" value="Người dùng" style="shape=umlActor;verticalLabelPosition=bottom;verticalAlign=top;html=1;outlineConnect=0;" vertex="1" parent="1">
          <mxGeometry x="20" y="280" width="30" height="60" as="geometry" />
        </mxCell>
        <mxCell id="o4THPmxDcBXAigtbzNWf-2" value="" style="rounded=0;whiteSpace=wrap;html=1;" vertex="1" parent="1">
          <mxGeometry x="80" y="130" width="680" height="360" as="geometry" />
        </mxCell>
        <mxCell id="o4THPmxDcBXAigtbzNWf-3" value="&lt;blockquote style=&quot;margin: 0 0 0 40px; border: none; padding: 0px;&quot;&gt;Xác Nhận Thanh Toán&lt;/blockquote&gt;" style="text;align=center;fontStyle=1;verticalAlign=middle;spacingLeft=3;spacingRight=3;strokeColor=none;rotatable=0;points=[[0,0.5],[1,0.5]];portConstraint=eastwest;html=1;" vertex="1" parent="1">
          <mxGeometry x="354" y="140" width="80" height="26" as="geometry" />
        </mxCell>
        <mxCell id="o4THPmxDcBXAigtbzNWf-4" value="Chọn Phương &lt;br&gt;Thức Thanh Toán" style="ellipse;whiteSpace=wrap;html=1;" vertex="1" parent="1">
          <mxGeometry x="100" y="280" width="120" height="50" as="geometry" />
        </mxCell>
        <mxCell id="o4THPmxDcBXAigtbzNWf-5" value="Thanh Toán" style="ellipse;whiteSpace=wrap;html=1;" vertex="1" parent="1">
          <mxGeometry x="280" y="280" width="120" height="50" as="geometry" />
        </mxCell>
        <mxCell id="o4THPmxDcBXAigtbzNWf-6" value="" style="endArrow=none;html=1;rounded=0;exitX=1;exitY=0.3333333333333333;exitDx=0;exitDy=0;exitPerimeter=0;entryX=0;entryY=0.5;entryDx=0;entryDy=0;" edge="1" parent="1" source="o4THPmxDcBXAigtbzNWf-1" target="o4THPmxDcBXAigtbzNWf-4">
          <mxGeometry width="50" height="50" relative="1" as="geometry">
            <mxPoint x="370" y="340" as="sourcePoint" />
            <mxPoint x="420" y="290" as="targetPoint" />
          </mxGeometry>
        </mxCell>
        <mxCell id="o4THPmxDcBXAigtbzNWf-7" value="Hệ Thống" style="shape=umlActor;verticalLabelPosition=bottom;verticalAlign=top;html=1;outlineConnect=0;" vertex="1" parent="1">
          <mxGeometry x="770" y="270" width="30" height="60" as="geometry" />
        </mxCell>
        <mxCell id="o4THPmxDcBXAigtbzNWf-8" value="Xác Nhận Thanh Toán" style="ellipse;whiteSpace=wrap;html=1;" vertex="1" parent="1">
          <mxGeometry x="460" y="280" width="100" height="50" as="geometry" />
        </mxCell>
        <mxCell id="o4THPmxDcBXAigtbzNWf-9" value="&amp;lt;&amp;lt;include&amp;gt;&amp;gt;" style="html=1;verticalAlign=bottom;endArrow=block;edgeStyle=elbowEdgeStyle;elbow=vertical;curved=0;rounded=0;exitX=1;exitY=0.5;exitDx=0;exitDy=0;entryX=0;entryY=0.5;entryDx=0;entryDy=0;" edge="1" parent="1" source="o4THPmxDcBXAigtbzNWf-4" target="o4THPmxDcBXAigtbzNWf-5">
          <mxGeometry width="80" relative="1" as="geometry">
            <mxPoint x="270" y="309.5" as="sourcePoint" />
            <mxPoint x="350" y="309.5" as="targetPoint" />
          </mxGeometry>
        </mxCell>
        <mxCell id="o4THPmxDcBXAigtbzNWf-10" value="Thông Báo &lt;br&gt;Thanh Toán" style="ellipse;whiteSpace=wrap;html=1;" vertex="1" parent="1">
          <mxGeometry x="620" y="280" width="100" height="50" as="geometry" />
        </mxCell>
        <mxCell id="o4THPmxDcBXAigtbzNWf-11" value="" style="line;strokeWidth=1;fillColor=none;align=left;verticalAlign=middle;spacingTop=-1;spacingLeft=3;spacingRight=3;rotatable=0;labelPosition=right;points=[];portConstraint=eastwest;strokeColor=inherit;" vertex="1" parent="1">
          <mxGeometry x="720" y="301" width="50" height="8" as="geometry" />
        </mxCell>
        <mxCell id="o4THPmxDcBXAigtbzNWf-12" value="&amp;lt;&amp;lt;include&amp;gt;&amp;gt;" style="html=1;verticalAlign=bottom;endArrow=block;edgeStyle=elbowEdgeStyle;elbow=vertical;curved=0;rounded=0;exitX=1;exitY=0.5;exitDx=0;exitDy=0;entryX=0;entryY=0.5;entryDx=0;entryDy=0;" edge="1" parent="1">
          <mxGeometry width="80" relative="1" as="geometry">
            <mxPoint x="400" y="304.5" as="sourcePoint" />
            <mxPoint x="460" y="304.5" as="targetPoint" />
          </mxGeometry>
        </mxCell>
        <mxCell id="o4THPmxDcBXAigtbzNWf-13" value="&amp;lt;&amp;lt;include&amp;gt;&amp;gt;" style="html=1;verticalAlign=bottom;endArrow=block;edgeStyle=elbowEdgeStyle;elbow=vertical;curved=0;rounded=0;exitX=1;exitY=0.5;exitDx=0;exitDy=0;entryX=0;entryY=0.5;entryDx=0;entryDy=0;" edge="1" parent="1">
          <mxGeometry width="80" relative="1" as="geometry">
            <mxPoint x="560" y="308" as="sourcePoint" />
            <mxPoint x="620" y="308" as="targetPoint" />
          </mxGeometry>
        </mxCell>
      </root>
    </mxGraphModel>
  </diagram>
</mxfile>
